<?xml version="1.0" encoding="UTF-8" standalone="no"?>
<!-- Created with Inkscape (http://www.inkscape.org/) -->
<svg id="svg827769" xmlns:rdf="http://www.w3.org/1999/02/22-rdf-syntax-ns#" xmlns="http://www.w3.org/2000/svg" height="1052.4" width="744.09" version="1.1" xmlns:cc="http://creativecommons.org/ns#" xmlns:dc="http://purl.org/dc/elements/1.1/">
 <metadata id="metadata827774">
  <rdf:RDF>
   <cc:Work rdf:about="">
    <dc:format>image/svg+xml</dc:format>
    <dc:type rdf:resource="http://purl.org/dc/dcmitype/StillImage"/>
    <dc:title/>
   </cc:Work>
  </rdf:RDF>
 </metadata>
 <g id="layer1">
  <g id="node9506" transform="matrix(0.87303935,0,0,0.87303935,-412781.18,1335.7841)" class="node">
   <title id="title685840">node32361</title>
   <ellipse id="ellipse685842" d="m 473010,-1149 c 0,9.9411 -12.09,18 -27,18 -14.91,0 -27,-8.0589 -27,-18 0,-9.9411 12.09,-18 27,-18 14.91,0 27,8.0589 27,18 z" cx="472980" cy="-1149" rx="27" ry="18" stroke="#000" fill="none"/>
  </g>
  <g id="node9507" transform="matrix(0.87303935,0,0,0.87303935,-412781.18,1335.7841)" class="node">
   <title id="title687206">node32362</title>
   <ellipse id="ellipse687208" d="m 473010,-1062 c 0,9.9411 -12.09,18 -27,18 -14.91,0 -27,-8.0589 -27,-18 0,-9.9411 12.09,-18 27,-18 14.91,0 27,8.0589 27,18 z" cx="472980" cy="-1062" rx="27" ry="18" stroke="#000" fill="none"/>
  </g>
  <g id="edge9507" transform="matrix(0.87303935,0,0,0.87303935,-412781.18,1335.7841)" class="edge">
   <title id="title687211">node32361-&gt;node32362</title>
   <path id="path687213" d="m472980-1130.8v40.56" fill="none" stroke="#000"/>
   <polygon id="polygon687215" points="472980,-1090.2,472990,-1090.2,472990,-1090.2,472980,-1080.2" stroke="#000" fill="#000"/>
   <text id="text687217" style="text-anchor:middle;" font-size="14px" y="-1101.8" x="473000" font-family="Monospace">1562</text>
  </g>
  <g id="node9540" transform="matrix(0.87303935,0,0,0.87303935,-412781.18,1335.7841)" class="node">
   <title id="title687220">node32395</title>
   <ellipse id="ellipse687222" d="m 473082,-1062 c 0,9.9411 -12.09,18 -27,18 -14.91,0 -27,-8.0589 -27,-18 0,-9.9411 12.09,-18 27,-18 14.91,0 27,8.0589 27,18 z" cx="473060" cy="-1062" rx="27" ry="18" stroke="#000" fill="none"/>
   <text id="text687224" style="text-anchor:middle;" font-size="14px" y="-1058.3" x="473055" font-family="Monospace">to</text>
  </g>
  <g id="edge9508" transform="matrix(0.87303935,0,0,0.87303935,-412781.18,1335.7841)" class="edge">
   <title id="title687227">node32361-&gt;node32395</title>
   <path id="path687229" d="m473000-1134.5c7,6.2,15,13.85,22,21.46,7,7.82,13,17.02,19,25.38" fill="none" stroke="#000"/>
   <polygon id="polygon687231" points="473040,-1085.5,473040,-1089.3,473040,-1089.3,473040,-1079" stroke="#000" fill="#000"/>
   <text id="text687233" style="text-anchor:middle;" font-size="14px" y="-1101.8" x="473050" font-family="Monospace">1546</text>
  </g>
  <g id="node9508" transform="matrix(0.87303935,0,0,0.87303935,-412781.18,1335.7841)" class="node">
   <title id="title687236">node32363</title>
   <ellipse id="ellipse687238" d="m 473010,-975 c 0,9.94113 -12.09,18 -27,18 -14.91,0 -27,-8.05887 -27,-18 0,-9.94113 12.09,-18 27,-18 14.91,0 27,8.05887 27,18 z" cx="472980" cy="-975" rx="27" ry="18" stroke="#000" fill="none"/>
  </g>
  <g id="edge9509" transform="matrix(0.87303935,0,0,0.87303935,-412781.18,1335.7841)" class="edge">
   <title id="title687241">node32362-&gt;node32363</title>
   <path id="path687243" d="m472980-1043.8v40.56" fill="none" stroke="#000"/>
   <polygon id="polygon687245" points="472980,-1003.2,472990,-1003.2,472990,-1003.2,472980,-993.18" stroke="#000" fill="#000"/>
   <text id="text687247" style="text-anchor:middle;" font-size="14px" y="-1014.8" x="472995" font-family="Monospace">784</text>
  </g>
  <g id="node9531" transform="matrix(0.87303935,0,0,0.87303935,-412781.18,1335.7841)" class="node">
   <title id="title687250">node32386</title>
   <ellipse id="ellipse687252" d="m 473436,-975 c 0,9.94113 -12.09,18 -27,18 -14.91,0 -27,-8.05887 -27,-18 0,-9.94113 12.09,-18 27,-18 14.91,0 27,8.05887 27,18 z" cx="473410" cy="-975" rx="27" ry="18" stroke="#000" fill="none"/>
  </g>
  <g id="edge9510" transform="matrix(0.87303935,0,0,0.87303935,-412781.18,1335.7841)" class="edge">
   <title id="title687255">node32362-&gt;node32386</title>
   <path id="path687257" d="m473000-1050.1c5,2.3,11,4.51,16,6.14,126,39.99,283,58.3,353,64.913" fill="none" stroke="#000"/>
   <polygon id="polygon687259" points="473370,-975.59,473370,-982.56,473370,-982.56,473380,-978.16" stroke="#000" fill="#000"/>
   <text id="text687261" style="text-anchor:middle;" font-size="14px" y="-1014.8" x="473158" font-family="Monospace">778</text>
  </g>
  <g id="node9509" transform="matrix(0.87303935,0,0,0.87303935,-412781.18,1335.7841)" class="node">
   <title id="title687264">node32364</title>
   <ellipse id="ellipse687266" d="m 472962,-888 c 0,9.94113 -12.09,18 -27,18 -14.91,0 -27,-8.05887 -27,-18 0,-9.94113 12.09,-18 27,-18 14.91,0 27,8.05887 27,18 z" cx="472940" cy="-888" rx="27" ry="18" stroke="#000" fill="none"/>
  </g>
  <g id="edge9511" transform="matrix(0.87303935,0,0,0.87303935,-412781.18,1335.7841)" class="edge">
   <title id="title687269">node32363-&gt;node32364</title>
   <path id="path687271" d="m472970-958.01c-7,12.387-17,29.777-25,44.001" fill="none" stroke="#000"/>
   <polygon id="polygon687273" points="472950,-915.63,472950,-912.19,472950,-912.19,472940,-905.2" stroke="#000" fill="#000"/>
   <text id="text687275" style="text-anchor:middle;" font-size="14px" y="-927.79999" x="472974" font-family="Monospace">392</text>
  </g>
  <g id="node9522" transform="matrix(0.87303935,0,0,0.87303935,-412781.18,1335.7841)" class="node">
   <title id="title687278">node32377</title>
   <ellipse id="ellipse687280" d="m 473074,-888 c 0,9.94113 -12.09,18 -27,18 -14.91,0 -27,-8.05887 -27,-18 0,-9.94113 12.09,-18 27,-18 14.91,0 27,8.05887 27,18 z" cx="473050" cy="-888" rx="27" ry="18" stroke="#000" fill="none"/>
  </g>
  <g id="edge9512" transform="matrix(0.87303935,0,0,0.87303935,-412781.18,1335.7841)" class="edge">
   <title id="title687283">node32363-&gt;node32377</title>
   <path id="path687285" d="m473000-958.41c9,12.821,23,31.191,34,45.813" fill="none" stroke="#000"/>
   <polygon id="polygon687287" points="473030,-910.38,473030,-914.58,473030,-914.58,473040,-904.49" stroke="#000" fill="#000"/>
   <text id="text687289" style="text-anchor:middle;" font-size="14px" y="-927.79999" x="473031" font-family="Monospace">392</text>
  </g>
  <g id="edge9513" transform="matrix(0.39603818,0,0,0.44719906,-187201.35,961.60222)" class="edge">
   <title id="title687297">node32364-&gt;node32365</title>
   <path id="path687299" d="m472910-878.22c-40,15.214-123,46.52-169,63.905" fill="none" stroke="#000"/>
   <polygon id="polygon687301" points="472740,-811,472730,-810.73,472740,-817.55,472740,-811" stroke="#000" fill="#000"/>
   <text id="text687303" style="text-anchor:middle;" font-size="14px" y="-840.79999" x="472849" font-family="Monospace">196</text>
  </g>
  <g id="node9517" transform="matrix(0.87303935,0,0,0.87303935,-412781.18,1335.7841)" class="node">
   <title id="title687306">node32372</title>
   <ellipse id="ellipse687308" d="m 472962,-801 c 0,9.94113 -12.09,18 -27,18 -14.91,0 -27,-8.05887 -27,-18 0,-9.94113 12.09,-18 27,-18 14.91,0 27,8.05887 27,18 z" cx="472940" cy="-801" rx="27" ry="18" stroke="#000" fill="none"/>
  </g>
  <g id="edge9514" transform="matrix(0.87303935,0,0,0.87303935,-412781.18,1335.7841)" class="edge">
   <title id="title687311">node32364-&gt;node32372</title>
   <path id="path687313" d="m472940-869.8v40.562" fill="none" stroke="#000"/>
   <polygon id="polygon687315" points="472930,-829.18,472940,-829.18,472940,-829.18,472940,-819.18" stroke="#000" fill="#000"/>
   <text id="text687317" style="text-anchor:middle;" font-size="14px" y="-840.79999" x="472947" font-family="Monospace">196</text>
  </g>
  <g id="node9518" transform="matrix(0.87303935,0,0,0.87303935,-412781.18,1335.7841)" class="node">
   <title id="title687412">node32373</title>
   <ellipse id="ellipse687414" d="m 472931.19,-714 c 0,9.94113 -21.57,18 -48.19,18 -26.62,0 -48.19,-8.05887 -48.19,-18 0,-9.94113 21.57,-18 48.19,-18 26.62,0 48.19,8.05887 48.19,18 z" cx="472880" cy="-714" rx="48.192" ry="18" stroke="#000" fill="none"/>
   <text id="text687416" style="text-anchor:middle;" font-size="14px" y="-710.29999" x="472883" font-family="Monospace">replied</text>
  </g>
  <g id="edge9521" transform="matrix(0.87303935,0,0,0.87303935,-412781.18,1335.7841)" class="edge">
   <title id="title687419">node32372-&gt;node32373</title>
   <path id="path687421" d="m472920-784.01c-7,12.229-18,29.335-26,43.456" fill="none" stroke="#000"/>
   <polygon id="polygon687423" points="472900,-742.14,472900,-738.49,472900,-738.49,472890,-731.79" stroke="#000" fill="#000"/>
   <text id="text687425" style="text-anchor:middle;" font-size="14px" y="-753.79999" x="472921" font-family="Monospace">98</text>
  </g>
  <g id="node9519" transform="matrix(0.87303935,0,0,0.87303935,-412781.18,1335.7841)" class="node">
   <title id="title687428">node32374</title>
   <ellipse id="ellipse687430" d="m 473003,-714 c 0,9.94113 -12.09,18 -27,18 -14.91,0 -27,-8.05887 -27,-18 0,-9.94113 12.09,-18 27,-18 14.91,0 27,8.05887 27,18 z" cx="472980" cy="-714" rx="27" ry="18" stroke="#000" fill="none"/>
  </g>
  <g id="edge9522" transform="matrix(0.87303935,0,0,0.87303935,-412781.18,1335.7841)" class="edge">
   <title id="title687433">node32372-&gt;node32374</title>
   <path id="path687435" d="m472940-783.61c6,12.229,14,29.168,21,43.155" fill="none" stroke="#000"/>
   <polygon id="polygon687437" points="472960,-738.82,472970,-741.87,472970,-741.87,472970,-731.34" stroke="#000" fill="#000"/>
   <text id="text687439" style="text-anchor:middle;" font-size="14px" y="-753.79999" x="472966" font-family="Monospace">98</text>
  </g>
  <g id="node9520" transform="matrix(0.87303935,0,0,0.87303935,-412781.18,1335.7841)" class="node">
   <title id="title687442">node32375</title>
   <ellipse id="ellipse687444" d="m 472930.19,-627 c 0,9.94113 -21.57,18 -48.19,18 -26.62,0 -48.19,-8.05887 -48.19,-18 0,-9.94113 21.57,-18 48.19,-18 26.62,0 48.19,8.05887 48.19,18 z" cx="472880" cy="-627" rx="48.192" ry="18" stroke="#000" fill="none"/>
   <text id="text687446" style="text-anchor:middle;" font-size="14px" y="-623.29999" x="472882" font-family="Monospace">meaning</text>
  </g>
  <g id="edge9523" transform="matrix(0.87303935,0,0,0.87303935,-412781.18,1335.7841)" class="edge">
   <title id="title687449">node32374-&gt;node32375</title>
   <path id="path687451" d="m472960-698.96c-14,13.167-36,33.079-53,48.463" fill="none" stroke="#000"/>
   <polygon id="polygon687453" points="472900,-653.1,472910,-647.9,472910,-647.9,472900,-643.79" stroke="#000" fill="#000"/>
   <text id="text687455" style="text-anchor:middle;" font-size="14px" y="-666.79999" x="472943" font-family="Monospace">49</text>
  </g>
  <g id="node9521" transform="matrix(0.87303935,0,0,0.87303935,-412781.18,1335.7841)" class="node">
   <title id="title687458">node32376</title>
   <ellipse id="ellipse687460" d="m 473044.19,-627 c 0,9.94113 -21.57,18 -48.19,18 -26.62,0 -48.19,-8.05887 -48.19,-18 0,-9.94113 21.57,-18 48.19,-18 26.62,0 48.19,8.05887 48.19,18 z" cx="473000" cy="-627" rx="48.192" ry="18" stroke="#000" fill="none"/>
   <text id="text687462" style="text-anchor:middle;" font-size="14px" y="-623.29999" x="472996" font-family="Monospace">noticed</text>
  </g>
  <g id="edge9524" transform="matrix(0.87303935,0,0,0.87303935,-412781.18,1335.7841)" class="edge">
   <title id="title687465">node32374-&gt;node32376</title>
   <path id="path687467" d="m472980-695.8c3,11.636,6,27.251,9,40.562" fill="none" stroke="#000"/>
   <polygon id="polygon687469" points="472990,-654.11,472990,-655.71,472990,-655.71,472990,-645.18" stroke="#000" fill="#000"/>
   <text id="text687471" style="text-anchor:middle;" font-size="14px" y="-666.79999" x="472996" font-family="Monospace">49</text>
  </g>
  <g id="node9523" transform="matrix(0.87303935,0,0,0.87303935,-412781.18,1335.7841)" class="node">
   <title id="title687474">node32378</title>
   <ellipse id="ellipse687476" d="m 473079.49,-801 c 0,9.94113 -14.54,18 -32.49,18 -17.95,0 -32.49,-8.05887 -32.49,-18 0,-9.94113 14.54,-18 32.49,-18 17.95,0 32.49,8.05887 32.49,18 z" cx="473050" cy="-801" rx="32.494" ry="18" stroke="#000" fill="none"/>
   <text id="text687478" style="text-anchor:middle;" font-size="14px" y="-797.29999" x="473047" font-family="Monospace">them</text>
  </g>
  <g id="edge9525" transform="matrix(0.87303935,0,0,0.87303935,-412781.18,1335.7841)" class="edge">
   <title id="title687481">node32377-&gt;node32378</title>
   <path id="path687483" d="m473050-869.8v40.562" fill="none" stroke="#000"/>
   <polygon id="polygon687485" points="473040,-829.18,473050,-829.18,473050,-829.18,473050,-819.18" stroke="#000" fill="#000"/>
   <text id="text687487" style="text-anchor:middle;" font-size="14px" y="-840.79999" x="473059" font-family="Monospace">196</text>
  </g>
  <g id="node9524" transform="matrix(0.87303935,0,0,0.87303935,-412781.18,1335.7841)" class="node">
   <title id="title687490">node32379</title>
   <ellipse id="ellipse687492" d="m 473169,-801 c 0,9.94113 -12.09,18 -27,18 -14.91,0 -27,-8.05887 -27,-18 0,-9.94113 12.09,-18 27,-18 14.91,0 27,8.05887 27,18 z" cx="473140" cy="-801" rx="27" ry="18" stroke="#000" fill="none"/>
  </g>
  <g id="edge9526" transform="matrix(0.87303935,0,0,0.87303935,-412781.18,1335.7841)" class="edge">
   <title id="title687495">node32377-&gt;node32379</title>
   <path id="path687497" d="m473060-872.96c15,13.657,38,34.573,56,50.164" fill="none" stroke="#000"/>
   <polygon id="polygon687499" points="473120,-820.12,473120,-825.33,473120,-825.33,473130,-816.06" stroke="#000" fill="#000"/>
   <text id="text687501" style="text-anchor:middle;" font-size="14px" y="-840.79999" x="473113" font-family="Monospace">196</text>
  </g>
  <g id="node9525" transform="matrix(0.87303935,0,0,0.87303935,-412781.18,1335.7841)" class="node">
   <title id="title687504">node32380</title>
   <ellipse id="ellipse687506" d="m 473169,-714 c 0,9.94113 -12.09,18 -27,18 -14.91,0 -27,-8.05887 -27,-18 0,-9.94113 12.09,-18 27,-18 14.91,0 27,8.05887 27,18 z" cx="473140" cy="-714" rx="27" ry="18" stroke="#000" fill="none"/>
  </g>
  <g id="edge9527" transform="matrix(0.87303935,0,0,0.87303935,-412781.18,1335.7841)" class="edge">
   <title id="title687509">node32379-&gt;node32380</title>
   <path id="path687511" d="m473140-782.8v40.562" fill="none" stroke="#000"/>
   <polygon id="polygon687513" points="473140,-742.18,473140,-742.18,473140,-742.18,473140,-732.18" stroke="#000" fill="#000"/>
   <text id="text687515" style="text-anchor:middle;" font-size="14px" y="-753.79999" x="473150" font-family="Monospace">98</text>
  </g>
  <g id="node9528" transform="matrix(0.87303935,0,0,0.87303935,-412781.18,1335.7841)" class="node">
   <title id="title687518">node32383</title>
   <ellipse id="ellipse687520" d="m 473301,-714 c 0,9.94113 -12.09,18 -27,18 -14.91,0 -27,-8.05887 -27,-18 0,-9.94113 12.09,-18 27,-18 14.91,0 27,8.05887 27,18 z" cx="473270" cy="-714" rx="27" ry="18" stroke="#000" fill="none"/>
  </g>
  <g id="edge9528" transform="matrix(0.87303935,0,0,0.87303935,-412781.18,1335.7841)" class="edge">
   <title id="title687523">node32379-&gt;node32383</title>
   <path id="path687525" d="m473160-787.82c22,14.455,60,38.673,85,55.178" fill="none" stroke="#000"/>
   <polygon id="polygon687527" points="473240,-729.63,473250,-735.51,473250,-735.51,473260,-727.16" stroke="#000" fill="#000"/>
   <text id="text687529" style="text-anchor:middle;" font-size="14px" y="-753.79999" x="473224" font-family="Monospace">98</text>
  </g>
  <g id="node9526" transform="matrix(0.87303935,0,0,0.87303935,-412781.18,1335.7841)" class="node">
   <title id="title687532">node32381</title>
   <ellipse id="ellipse687534" d="m 473158.19,-627 c 0,9.94113 -21.57,18 -48.19,18 -26.62,0 -48.19,-8.05887 -48.19,-18 0,-9.94113 21.57,-18 48.19,-18 26.62,0 48.19,8.05887 48.19,18 z" cx="473110" cy="-627" rx="48.192" ry="18" stroke="#000" fill="none"/>
   <text id="text687536" style="text-anchor:middle;" font-size="14px" y="-623.29999" x="473110" font-family="Monospace">waiting</text>
  </g>
  <g id="edge9529" transform="matrix(0.87303935,0,0,0.87303935,-412781.18,1335.7841)" class="edge">
   <title id="title687539">node32380-&gt;node32381</title>
   <path id="path687541" d="m473140-696.21c-5,11.914-11,28.144-16,41.783" fill="none" stroke="#000"/>
   <polygon id="polygon687543" points="473120,-655.64,473120,-653.18,473120,-653.18,473120,-645.05" stroke="#000" fill="#000"/>
   <text id="text687545" style="text-anchor:middle;" font-size="14px" y="-666.79999" x="473136" font-family="Monospace">49</text>
  </g>
  <g id="node9527" transform="matrix(0.87303935,0,0,0.87303935,-412781.18,1335.7841)" class="node">
   <title id="title687548">node32382</title>
   <ellipse id="ellipse687550" d="m 473272.19,-627 c 0,9.94113 -21.57,18 -48.19,18 -26.62,0 -48.19,-8.05887 -48.19,-18 0,-9.94113 21.57,-18 48.19,-18 26.62,0 48.19,8.05887 48.19,18 z" cx="473220" cy="-627" rx="48.192" ry="18" stroke="#000" fill="none"/>
   <text id="text687552" style="text-anchor:middle;" font-size="14px" y="-623.29999" x="473224" font-family="Monospace">minutes</text>
  </g>
  <g id="edge9530" transform="matrix(0.87303935,0,0,0.87303935,-412781.18,1335.7841)" class="edge">
   <title id="title687555">node32380-&gt;node32382</title>
   <path id="path687557" d="m473160-698.19c13,12.88,31,31.772,45,46.712" fill="none" stroke="#000"/>
   <polygon id="polygon687559" points="473200,-648.85,473200,-653.71,473200,-653.71,473210,-644.08" stroke="#000" fill="#000"/>
   <text id="text687561" style="text-anchor:middle;" font-size="14px" y="-666.79999" x="473196" font-family="Monospace">49</text>
  </g>
  <g id="node9529" transform="matrix(0.87303935,0,0,0.87303935,-412781.18,1335.7841)" class="node">
   <title id="title687564">node32384</title>
   <ellipse id="ellipse687566" d="m 473386.19,-627 c 0,9.94113 -21.57,18 -48.19,18 -26.62,0 -48.19,-8.05887 -48.19,-18 0,-9.94113 21.57,-18 48.19,-18 26.62,0 48.19,8.05887 48.19,18 z" cx="473340" cy="-627" rx="48.192" ry="18" stroke="#000" fill="none"/>
   <text id="text687568" style="text-anchor:middle;" font-size="14px" y="-623.29999" x="473338" font-family="Monospace">changed</text>
  </g>
  <g id="edge9531" transform="matrix(0.87303935,0,0,0.87303935,-412781.18,1335.7841)" class="edge">
   <title id="title687571">node32383-&gt;node32384</title>
   <path id="path687573" d="m473290-697.41c9,12.5,22,30.276,33,44.71" fill="none" stroke="#000"/>
   <polygon id="polygon687575" points="473320,-650.54,473320,-654.75,473320,-654.75,473320,-644.65" stroke="#000" fill="#000"/>
   <text id="text687577" style="text-anchor:middle;" font-size="14px" y="-666.79999" x="473318" font-family="Monospace">49</text>
  </g>
  <g id="node9530" transform="matrix(0.87303935,0,0,0.87303935,-412781.18,1335.7841)" class="node">
   <title id="title687580">node32385</title>
   <ellipse id="ellipse687582" d="m 473500.19,-627 c 0,9.94113 -21.57,18 -48.19,18 -26.62,0 -48.19,-8.05887 -48.19,-18 0,-9.94113 21.57,-18 48.19,-18 26.62,0 48.19,8.05887 48.19,18 z" cx="473450" cy="-627" rx="48.192" ry="18" stroke="#000" fill="none"/>
   <text id="text687584" style="text-anchor:middle;" font-size="14px" y="-623.29999" x="473452" font-family="Monospace">Section</text>
  </g>
  <g id="edge9532" transform="matrix(0.87303935,0,0,0.87303935,-412781.18,1335.7841)" class="edge">
   <title id="title687587">node32383-&gt;node32385</title>
   <path id="path687589" d="m473300-702.75c30,14.024,83,39.414,119,56.671" fill="none" stroke="#000"/>
   <polygon id="polygon687591" points="473410,-642.81,473420,-649.13,473420,-649.13,473420,-641.66" stroke="#000" fill="#000"/>
   <text id="text687593" style="text-anchor:middle;" font-size="14px" y="-666.79999" x="473382" font-family="Monospace">49</text>
  </g>
  <g id="node9532" transform="matrix(0.87303935,0,0,0.87303935,-412781.18,1335.7841)" class="node">
   <title id="title687596">node32387</title>
   <ellipse id="ellipse687598" d="m 473436,-888 c 0,9.94113 -12.09,18 -27,18 -14.91,0 -27,-8.05887 -27,-18 0,-9.94113 12.09,-18 27,-18 14.91,0 27,8.05887 27,18 z" cx="473410" cy="-888" rx="27" ry="18" stroke="#000" fill="none"/>
  </g>
  <g id="edge9533" transform="matrix(0.87303935,0,0,0.87303935,-412781.18,1335.7841)" class="edge">
   <title id="title687601">node32386-&gt;node32387</title>
   <path id="path687603" d="m473410-956.8v40.562" fill="none" stroke="#000"/>
   <polygon id="polygon687605" points="473400,-916.18,473410,-916.18,473410,-916.18,473410,-906.18" stroke="#000" fill="#000"/>
   <text id="text687607" style="text-anchor:middle;" font-size="14px" y="-927.79999" x="473421" font-family="Monospace">391</text>
  </g>
  <g id="node9537" transform="matrix(0.87303935,0,0,0.87303935,-412781.18,1335.7841)" class="node">
   <title id="title687610">node32392</title>
   <ellipse id="ellipse687612" d="m 473570,-888 c 0,9.94113 -12.09,18 -27,18 -14.91,0 -27,-8.05887 -27,-18 0,-9.94113 12.09,-18 27,-18 14.91,0 27,8.05887 27,18 z" cx="473540" cy="-888" rx="27" ry="18" stroke="#000" fill="none"/>
  </g>
  <g id="edge9534" transform="matrix(0.87303935,0,0,0.87303935,-412781.18,1335.7841)" class="edge">
   <title id="title687615">node32386-&gt;node32392</title>
   <path id="path687617" d="m473430-962c23,14.491,61,38.982,87,55.56" fill="none" stroke="#000"/>
   <polygon id="polygon687619" points="473510,-903.34,473520,-909.25,473520,-909.25,473520,-900.94" stroke="#000" fill="#000"/>
   <text id="text687621" style="text-anchor:middle;" font-size="14px" y="-927.79999" x="473497" font-family="Monospace">387</text>
  </g>
  <g id="node9533" transform="matrix(0.87303935,0,0,0.87303935,-412781.18,1335.7841)" class="node">
   <title id="title687624">node32388</title>
   <ellipse id="ellipse687626" d="m 473394,-801 c 0,9.94113 -12.09,18 -27,18 -14.91,0 -27,-8.05887 -27,-18 0,-9.94113 12.09,-18 27,-18 14.91,0 27,8.05887 27,18 z" cx="473370" cy="-801" rx="27" ry="18" stroke="#000" fill="none"/>
  </g>
  <g id="edge9535" transform="matrix(0.87303935,0,0,0.87303935,-412781.18,1335.7841)" class="edge">
   <title id="title687629">node32387-&gt;node32388</title>
   <path id="path687631" d="m473400-870.61c-6,12.229-15,29.168-22,43.155" fill="none" stroke="#000"/>
   <polygon id="polygon687633" points="473380,-828.85,473380,-825.75,473380,-825.75,473380,-818.34" stroke="#000" fill="#000"/>
   <text id="text687635" style="text-anchor:middle;" font-size="14px" y="-840.79999" x="473403" font-family="Monospace">196</text>
  </g>
  <g id="node9536" transform="matrix(0.87303935,0,0,0.87303935,-412781.18,1335.7841)" class="node">
   <title id="title687638">node32391</title>
   <ellipse id="ellipse687640" d="m 473487.89,-801 c 0,9.94113 -16.96,18 -37.89,18 -20.93,0 -37.89,-8.05887 -37.89,-18 0,-9.94113 16.96,-18 37.89,-18 20.93,0 37.89,8.05887 37.89,18 z" cx="473450" cy="-801" rx="37.894" ry="18" stroke="#000" fill="none"/>
   <text id="text687642" style="text-anchor:middle;" font-size="14px" y="-797.29999" x="473450" font-family="Monospace">other</text>
  </g>
  <g id="edge9536" transform="matrix(0.87303935,0,0,0.87303935,-412781.18,1335.7841)" class="edge">
   <title id="title687645">node32387-&gt;node32391</title>
   <path id="path687647" d="m473420-870.61c6,12.151,14,28.951,20,42.886" fill="none" stroke="#000"/>
   <polygon id="polygon687649" points="473430,-826.12,473440,-829.16,473440,-829.16,473440,-818.63" stroke="#000" fill="#000"/>
   <text id="text687651" style="text-anchor:middle;" font-size="14px" y="-840.79999" x="473444" font-family="Monospace">195</text>
  </g>
  <g id="node9534" transform="matrix(0.87303935,0,0,0.87303935,-412781.18,1335.7841)" class="node">
   <title id="title687654">node32389</title>
   <ellipse id="ellipse687656" d="m 473415.19,-714 c 0,9.94113 -21.57,18 -48.19,18 -26.62,0 -48.19,-8.05887 -48.19,-18 0,-9.94113 21.57,-18 48.19,-18 26.62,0 48.19,8.05887 48.19,18 z" cx="473370" cy="-714" rx="48.192" ry="18" stroke="#000" fill="none"/>
   <text id="text687658" style="text-anchor:middle;" font-size="14px" y="-710.29999" x="473367" font-family="Monospace">through</text>
  </g>
  <g id="edge9537" transform="matrix(0.87303935,0,0,0.87303935,-412781.18,1335.7841)" class="edge">
   <title id="title687661">node32388-&gt;node32389</title>
   <path id="path687663" d="m473370-782.8v40.562" fill="none" stroke="#000"/>
   <polygon id="polygon687665" points="473360,-742.18,473370,-742.18,473370,-742.18,473370,-732.18" stroke="#000" fill="#000"/>
   <text id="text687667" style="text-anchor:middle;" font-size="14px" y="-753.79999" x="473375" font-family="Monospace">98</text>
  </g>
  <g id="node9535" transform="matrix(0.87303935,0,0,0.87303935,-412781.18,1335.7841)" class="node">
   <title id="title687670">node32390</title>
   <ellipse id="ellipse687672" d="m 473529.19,-714 c 0,9.94113 -21.57,18 -48.19,18 -26.62,0 -48.19,-8.05887 -48.19,-18 0,-9.94113 21.57,-18 48.19,-18 26.62,0 48.19,8.05887 48.19,18 z" cx="473480" cy="-714" rx="48.192" ry="18" stroke="#000" fill="none"/>
   <text id="text687674" style="text-anchor:middle;" font-size="14px" y="-710.29999" x="473481" font-family="Monospace">&apos;That&apos;s</text>
  </g>
  <g id="edge9538" transform="matrix(0.87303935,0,0,0.87303935,-412781.18,1335.7841)" class="edge">
   <title id="title687677">node32388-&gt;node32390</title>
   <path id="path687679" d="m473380-787.09c18,13.448,47,34.743,68,50.707" fill="none" stroke="#000"/>
   <polygon id="polygon687681" points="473450,-733.51,473450,-739.12,473450,-739.12,473460,-730.34" stroke="#000" fill="#000"/>
   <text id="text687683" style="text-anchor:middle;" font-size="14px" y="-753.79999" x="473439" font-family="Monospace">98</text>
  </g>
  <g id="node9538" transform="matrix(0.87303935,0,0,0.87303935,-412781.18,1335.7841)" class="node">
   <title id="title687686">node32393</title>
   <ellipse id="ellipse687688" d="m 473580.89,-801 c 0,9.94113 -16.96,18 -37.89,18 -20.93,0 -37.89,-8.05887 -37.89,-18 0,-9.94113 16.96,-18 37.89,-18 20.93,0 37.89,8.05887 37.89,18 z" cx="473540" cy="-801" rx="37.894" ry="18" stroke="#000" fill="none"/>
   <text id="text687690" style="text-anchor:middle;" font-size="14px" y="-797.29999" x="473543" font-family="Monospace">great</text>
  </g>
  <g id="edge9539" transform="matrix(0.87303935,0,0,0.87303935,-412781.18,1335.7841)" class="edge">
   <title id="title687693">node32392-&gt;node32393</title>
   <path id="path687695" d="m473540-869.8v40.562" fill="none" stroke="#000"/>
   <polygon id="polygon687697" points="473540,-829.18,473550,-829.18,473550,-829.18,473540,-819.18" stroke="#000" fill="#000"/>
   <text id="text687699" style="text-anchor:middle;" font-size="14px" y="-840.79999" x="473555" font-family="Monospace">195</text>
  </g>
  <g id="node9539" transform="matrix(0.87303935,0,0,0.87303935,-412781.18,1335.7841)" class="node">
   <title id="title687702">node32394</title>
   <ellipse id="ellipse687704" d="m 473653,-801 c 0,9.94113 -12.09,18 -27,18 -14.91,0 -27,-8.05887 -27,-18 0,-9.94113 12.09,-18 27,-18 14.91,0 27,8.05887 27,18 z" cx="473630" cy="-801" rx="27" ry="18" stroke="#000" fill="none"/>
   <text id="text687706" style="text-anchor:middle;" font-size="14px" y="-797.29999" x="473626" font-family="Monospace">he</text>
  </g>
  <g id="edge9540" transform="matrix(0.87303935,0,0,0.87303935,-412781.18,1335.7841)" class="edge">
   <title id="title687709">node32392-&gt;node32394</title>
   <path id="path687711" d="m473560-872.58c13,13.31,32,33.272,47,48.574" fill="none" stroke="#000"/>
   <polygon id="polygon687713" points="473600,-821.2,473610,-826.09,473610,-826.09,473610,-816.49" stroke="#000" fill="#000"/>
   <text id="text687715" style="text-anchor:middle;" font-size="14px" y="-840.79999" x="473602" font-family="Monospace">192</text>
  </g>
 </g>
</svg>
